<?xml version="1.0" encoding="UTF-8" standalone="no"?>
<!-- Created with Inkscape (http://www.inkscape.org/) -->
<svg
   xmlns:svg="http://www.w3.org/2000/svg"
   xmlns="http://www.w3.org/2000/svg"
   version="1.0"
   width="324"
   height="403"
   id="svg1901">
  <defs
     id="defs1903" />
  <g
     id="layer1">
    <g
       transform="matrix(3.718833,0,0,3.716135,-1017.019,-1477.584)"
       style="stroke-miterlimit:10"
       id="g6">
      <g
         transform="matrix(0.1,0,0,-0.1,0,840)"
         id="g8">
        <path
           d="M 3255.46,3850.9 C 3237.49,3850.65 3258.86,3841.64 3282.32,3838.03 C 3288.81,3843.1 3294.68,3848.2 3299.92,3853.18 C 3285.31,3849.61 3270.44,3849.53 3255.46,3850.9"
           style="fill:#d60750;stroke:none"
           id="path10" />
        <path
           d="M 3351.91,3874.94 C 3362.62,3889.71 3370.41,3905.88 3373.15,3922.6 C 3370.75,3910.68 3364.3,3900.39 3358.19,3889.53 C 3324.61,3868.38 3355.03,3902.09 3358.17,3914.9 C 3322.07,3869.43 3353.21,3887.64 3351.91,3874.94"
           style="fill:#d60750;stroke:none"
           id="path12" />
        <path
           d="M 3387.51,3967.58 C 3389.69,3999.94 3381.14,3989.71 3378.27,3977.36 C 3381.62,3975.62 3384.27,3954.55 3387.51,3967.58"
           style="fill:#d60750;stroke:none"
           id="path14" />
        <path
           d="M 3187.31,4409.88 C 3196.9,4408.16 3208.05,4406.84 3206.47,4404.55 C 3216.96,4406.85 3219.35,4408.97 3187.31,4409.88"
           style="fill:#d60750;stroke:none"
           id="path16" />
        <path
           d="M 3206.47,4404.55 L 3199.7,4403.15 L 3206.01,4403.71 L 3206.47,4404.55"
           style="fill:#d60750;stroke:none"
           id="path18" />
        <path
           d="M 3505.52,3955.31 C 3506.59,3926.25 3497.03,3912.15 3488.39,3887.19 L 3472.86,3879.43 C 3460.16,3854.75 3474.1,3863.75 3464.99,3844.12 C 3445.15,3826.48 3404.79,3788.93 3391.88,3785.49 C 3382.43,3785.7 3398.26,3796.62 3400.33,3800.9 C 3373.77,3782.66 3379.01,3773.52 3338.39,3762.44 L 3337.21,3765.08 C 3237.02,3717.95 3097.86,3811.35 3099.69,3938.79 C 3098.62,3930.7 3096.65,3932.72 3094.43,3929.45 C 3089.26,3995.02 3124.71,4060.88 3184.5,4087.77 C 3242.99,4116.72 3311.54,4104.84 3353.44,4065.8 C 3330.43,4095.94 3284.63,4127.89 3230.35,4124.9 C 3177.18,4124.06 3127.44,4090.27 3110.84,4053.59 C 3083.6,4036.44 3080.44,3987.48 3068.57,3978.52 C 3052.59,3861.15 3098.6,3810.45 3176.44,3750.8 C 3188.68,3742.54 3179.88,3741.29 3181.54,3735 C 3155.68,3747.11 3132,3765.39 3112.53,3787.77 C 3122.86,3772.66 3134.01,3757.95 3148.42,3746.41 C 3124.04,3754.67 3091.47,3805.49 3081.96,3807.56 C 3123.99,3732.3 3252.47,3675.59 3319.77,3703.73 C 3288.63,3702.58 3249.08,3703.09 3214.1,3716.02 C 3199.4,3723.57 3179.42,3739.24 3183,3742.17 C 3274.81,3707.87 3369.67,3716.19 3449.11,3779.88 C 3469.33,3795.62 3491.41,3822.4 3497.79,3822.77 C 3488.18,3808.32 3499.43,3815.82 3492.05,3803.07 C 3512.18,3835.55 3483.3,3816.29 3512.86,3859.16 L 3523.78,3844.12 C 3519.72,3871.09 3557.27,3903.83 3553.45,3946.47 C 3562.07,3959.51 3563.06,3932.44 3553.92,3902.44 C 3566.6,3935.72 3557.27,3941.07 3560.52,3968.53 C 3564.04,3959.3 3568.67,3949.49 3571.04,3939.75 C 3562.77,3971.91 3579.5,3993.91 3583.65,4012.6 C 3579.56,4014.41 3570.9,3998.38 3568.93,4036.37 C 3569.21,4052.87 3573.52,4045.02 3575.17,4049.08 C 3571.93,4050.94 3563.43,4063.59 3558.26,4087.85 C 3562,4093.55 3568.28,4073.07 3573.37,4072.23 C 3570.1,4091.52 3564.45,4106.23 3564.21,4121.03 C 3549.31,4152.17 3558.94,4116.88 3546.85,4134.4 C 3531,4183.87 3560.01,4145.88 3561.97,4168.36 C 3586.02,4133.53 3599.72,4079.55 3606.02,4057.19 C 3601.21,4084.45 3593.46,4110.86 3583.97,4136.41 C 3591.29,4133.34 3572.22,4192.5 3593.48,4153.32 C 3570.77,4236.84 3496.33,4314.88 3427.83,4351.5 C 3436.2,4343.83 3446.79,4334.2 3442.99,4332.69 C 3408.93,4352.97 3414.91,4354.55 3410.03,4363.12 C 3382.29,4374.41 3380.47,4362.21 3362.09,4363.1 C 3309.79,4390.84 3299.71,4387.89 3251.58,4405.27 L 3253.77,4395.04 C 3219.12,4406.58 3213.39,4390.66 3175.95,4395 C 3173.67,4396.78 3187.94,4401.44 3199.7,4403.15 C 3166.2,4398.73 3167.77,4409.75 3134.99,4401.93 C 3143.07,4407.6 3151.61,4411.35 3160.23,4416.17 C 3132.91,4414.51 3095.01,4400.27 3106.71,4413.22 C 3062.15,4393.34 2983.01,4365.43 2938.6,4323.79 L 2937.2,4333.12 C 2916.85,4308.69 2848.46,4260.16 2843.01,4228.52 L 2837.57,4227.25 C 2826.98,4209.32 2820.13,4189 2811.73,4170.55 C 2797.88,4146.95 2791.43,4161.47 2793.4,4157.77 C 2766.16,4102.54 2752.63,4056.13 2740.94,4018.07 C 2749.27,4005.62 2741.14,3943.12 2744.29,3893.1 C 2730.61,3646.05 2917.67,3406.19 3122.14,3350.82 C 3152.11,3340.1 3196.67,3340.51 3234.58,3339.41 C 3189.85,3352.21 3184.07,3346.19 3140.51,3361.39 C 3109.08,3376.19 3102.19,3393.09 3079.93,3412.4 L 3088.74,3396.84 C 3045.08,3412.28 3063.35,3415.96 3027.83,3427.21 L 3037.24,3439.49 C 3023.09,3440.57 2999.76,3463.34 2993.38,3475.96 L 2977.9,3475.35 C 2959.3,3498.3 2949.39,3514.84 2950.11,3527.66 L 2945.11,3518.75 C 2939.44,3528.48 2876.68,3604.82 2909.24,3587.05 C 2903.19,3592.58 2895.15,3596.05 2886.43,3611.9 L 2893.06,3619.47 C 2877.39,3639.63 2864.22,3665.47 2865.22,3674.08 C 2873.58,3662.79 2879.38,3660.68 2885.12,3658.75 C 2845.55,3756.93 2843.33,3664.16 2813.36,3758.69 L 2819.7,3759.2 C 2814.84,3766.52 2811.89,3774.47 2807.98,3782.27 L 2810.74,3809.77 C 2782.27,3842.66 2802.79,3949.78 2806.9,4008.53 C 2809.75,4032.42 2830.68,4057.85 2846.6,4097.73 L 2836.9,4099.4 C 2855.44,4131.74 2942.76,4229.28 2983.2,4224.26 C 3002.79,4248.87 2979.31,4224.35 2975.48,4230.55 C 3018.51,4275.08 3032.04,4262.01 3061.08,4270.02 C 3092.4,4288.61 3034.2,4262.77 3049.05,4277.11 C 3103.19,4290.94 3087.42,4308.55 3158.05,4315.57 C 3165.5,4311.33 3140.76,4309.02 3134.55,4303.52 C 3179.66,4325.59 3277.3,4320.57 3340.71,4291.27 C 3414.31,4256.88 3496.98,4155.22 3500.24,4059.57 L 3503.96,4058.57 C 3502.09,4020.55 3509.78,3976.58 3496.44,3936.19 L 3505.52,3955.31"
           style="fill:#d60750;stroke:none"
           id="path20" />
        <path
           d="M 3059.32,3826.23 L 3056.8,3813.63 C 3068.61,3797.6 3077.98,3780.22 3093.06,3767.68 C 3082.21,3788.85 3074.15,3797.6 3059.32,3826.23"
           style="fill:#d60750;stroke:none"
           id="path22" />
        <path
           d="M 3087.24,3827.32 C 3080.99,3834.24 3077.29,3842.56 3073.15,3850.84 C 3077.11,3836.27 3085.22,3823.75 3092.77,3811.02 L 3087.24,3827.32"
           style="fill:#d60750;stroke:none"
           id="path24" />
        <path
           d="M 3581.28,3934.71 L 3578.65,3928.09 C 3573.81,3893.71 3563.36,3859.69 3547.34,3828.15 C 3565.03,3861.43 3576.47,3897.83 3581.28,3934.71"
           style="fill:#d60750;stroke:none"
           id="path26" />
        <path
           d="M 3190.88,4418.5 C 3203.03,4422.95 3220.74,4420.94 3233.63,4423.87 C 3216.83,4422.46 3200.12,4421.62 3183.59,4419.49 L 3190.88,4418.5"
           style="fill:#d60750;stroke:none"
           id="path28" />
        <path
           d="M 2764.32,4191.68 C 2767.12,4165.76 2744.82,4155.7 2769.26,4172.79 C 2782.36,4202.3 2764.14,4180.94 2764.32,4191.68"
           style="fill:#d60750;stroke:none"
           id="path30" />
        <path
           d="M 2735.6,4071.72 C 2741.23,4089 2742.25,4099.38 2744.4,4109.38 C 2728.84,4089.49 2737.24,4085.25 2735.6,4071.72"
           style="fill:#d60750;stroke:none"
           id="path32" />
      </g>
    </g>
  </g>
</svg>
